# File created by Blade
# Date/Time:  Mon Nov 15 14:44:42 2010
#---------------------------------------------------------
:version 1.10
:name HOM
:units
  mass 1.0
  length 1.000000
  angle deg
:documentation
     Acclaim Skeleton File
:root
   axis xyz
   order TX TY TZ RX RY RZ
   position 0.000000 0.000000 0.000000
   orientation 0 0 0
:bonedata
   begin
      id 1
      name LeftUpLeg_dum
      direction 1.000000 0.000000 0.000000
      length 4.719518
      axis 0.0 0.0 0.0 xyz
   end
   begin
      id 2
      name RightUpLeg_dum
      direction -1.000000 0.000000 0.000000
      length 4.719518
      axis 0.0 0.0 0.0 xyz
   end
   begin
      id 3
      name Spine_dum
      direction 0.000000 1.000000 0.000000
      length 0.039370
      axis 0.0 0.0 0.0 xyz
   end
   begin
      id 4
      name LeftUpLeg
      direction 0.000000 -1.000000 0.000000
      length 19.141694
      axis 0.0 0.0 0.0 xyz
      dof rx ry rz
   end
   begin
      id 5
      name LeftLeg
      direction 0.000000 -1.000000 0.000000
      length 19.555040
      axis 0.0 0.0 0.0 xyz
      dof rx ry rz
   end
   begin
      id 6
      name LeftFoot
      direction 0.000000 -0.258819 0.965926
      length 6.929396
      axis 15.0 0.0 0.0 xyz
      dof rx ry rz
   end
   begin
      id 7
      name LeftToeBase
      direction 0.000000 0.000000 1.000000
      length 2.952750
      axis 0.0 0.0 0.0 xyz
      dof rx ry rz
   end
   begin
      id 8
      name RightUpLeg
      direction 0.000000 -1.000000 0.000000
      length 19.141694
      axis 0.0 0.0 0.0 xyz
      dof rx ry rz
   end
   begin
      id 9
      name RightLeg
      direction 0.000000 -1.000000 0.000000
      length 19.555040
      axis 0.0 0.0 0.0 xyz
      dof rx ry rz
   end
   begin
      id 10
      name RightFoot
      direction 0.000000 -0.258819 0.965926
      length 6.929396
      axis 15.0 0.0 0.0 xyz
      dof rx ry rz
   end
   begin
      id 11
      name RightToeBase
      direction 0.000000 0.000000 1.000000
      length 2.952750
      axis 0.0 0.0 0.0 xyz
      dof rx ry rz
   end
   begin
      id 12
      name Spine
      direction 0.000000 1.000000 0.000000
      length 11.965764
      axis 0.0 0.0 0.0 xyz
      dof rx ry rz
   end
   begin
      id 13
      name Spine1
      direction 0.000000 1.000000 0.000000
      length 0.000000
      axis 0.0 0.0 0.0 xyz
      dof rx ry rz
   end
   begin
      id 14
      name Spine1_dum1
      direction 0.000000 1.000000 0.000000
      length 9.788721
      axis 0.0 0.0 0.0 xyz
   end
   begin
      id 15
      name Spine1_dum2
      direction 0.000000 1.000000 0.000000
      length 9.788721
      axis 0.0 0.0 0.0 xyz
   end
   begin
      id 16
      name Spine1_dum3
      direction 0.000000 1.000000 0.000000
      length 9.788721
      axis 0.0 0.0 0.0 xyz
   end
   begin
      id 17
      name Neck
      direction 0.000000 1.000000 0.000000
      length 7.029632
      axis 0.0 0.0 0.0 xyz
      dof rx ry rz
   end
   begin
      id 18
      name Head
      direction 0.000000 1.000000 0.000000
      length 4.527550
      axis 0.0 0.0 0.0 xyz
      dof rx ry rz
   end
   begin
      id 19
      name LeftShoulder
      direction 1.000000 -0.000004 0.000000
      length 9.320257
      axis 0.0 0.0 -90.0 xyz
      dof rx ry rz
   end
   begin
      id 20
      name LeftArm
      direction 1.000000 -0.000004 0.000000
      length 12.801352
      axis 0.0 0.0 -90.0 xyz
      dof rx ry rz
   end
   begin
      id 21
      name LeftForeArm
      direction 1.000000 -0.000004 0.000000
      length 11.278127
      axis 0.0 0.0 -90.0 xyz
      dof rx ry rz
   end
   begin
      id 22
      name LeftHand
      direction 0.000000 0.000000 0.000000
      length 0.000000
      axis 0.0 0.0 -90.0 xyz
      dof rx ry rz
   end
   begin
      id 23
      name LeftHand_dum1
      direction 0.000000 0.000000 0.000000
      length 0.000000
      axis 0.0 0.0 -90.0 xyz
   end
   begin
      id 24
      name LeftHand_dum2
      direction 1.000000 -0.000004 0.000000
      length 3.937000
      axis 0.0 0.0 -90.0 xyz
   end
   begin
      id 25
      name LeftHandThumb
      direction 0.000000 0.000000 1.000000
      length 3.937000
      axis 0.0 0.0 -90.0 xyz
      dof rx ry rz
   end
   begin
      id 26
      name RightShoulder
      direction -1.000000 -0.000004 0.000000
      length 9.320257
      axis 0.0 0.0 90.0 xyz
      dof rx ry rz
   end
   begin
      id 27
      name RightArm
      direction -1.000000 -0.000004 0.000000
      length 12.801352
      axis 0.0 0.0 90.0 xyz
      dof rx ry rz
   end
   begin
      id 28
      name RightForeArm
      direction -1.000000 -0.000004 0.000000
      length 11.278127
      axis 0.0 0.0 90.0 xyz
      dof rx ry rz
   end
   begin
      id 29
      name RightHand
      direction 0.000000 0.000000 0.000000
      length 0.000000
      axis 0.0 0.0 90.0 xyz
      dof rx ry rz
   end
   begin
      id 30
      name RightHand_dum1
      direction 0.000000 0.000000 0.000000
      length 0.000000
      axis 0.0 0.0 90.0 xyz
   end
   begin
      id 31
      name RightHand_dum2
      direction -1.000000 -0.000004 0.000000
      length 5.393690
      axis 0.0 0.0 90.0 xyz
   end
   begin
      id 32
      name RightHandThumb
      direction 0.000000 0.000000 1.000000
      length 3.937000
      axis 0.0 0.0 90.0 xyz
      dof rx ry rz
   end
:hierarchy
   begin
      root LeftUpLeg_dum RightUpLeg_dum Spine_dum
      LeftUpLeg_dum LeftUpLeg
      RightUpLeg_dum RightUpLeg
      Spine_dum Spine
      LeftUpLeg LeftLeg
      LeftLeg LeftFoot
      LeftFoot LeftToeBase
      RightUpLeg RightLeg
      RightLeg RightFoot
      RightFoot RightToeBase
      Spine Spine1
      Spine1 Spine1_dum1 Spine1_dum2 Spine1_dum3
      Spine1_dum1 Neck
      Spine1_dum2 LeftShoulder
      Spine1_dum3 RightShoulder
      Neck Head
      LeftShoulder LeftArm
      LeftArm LeftForeArm
      LeftForeArm LeftHand
      LeftHand LeftHand_dum1 LeftHand_dum2
      LeftHand_dum1 LeftHandThumb
      RightShoulder RightArm
      RightArm RightForeArm
      RightForeArm RightHand
      RightHand RightHand_dum1 RightHand_dum2
      RightHand_dum1 RightHandThumb
   end

# File created by Blade
# Date/Time:  Mon Nov 15 14:56:25 2010
# Frame Rate: 200.000 fps
#------------------------------------------------------
:FULLY-SPECIFIED
:DEGREES
800
root  1.545186 41.315573 101.058088 -19.288471 1.248378 0.094388
LeftUpLeg  12.874749 2.621790 -1.056140
LeftLeg  5.110964 -0.000000 0.000000
LeftFoot  10.378003 11.580244 3.499928
LeftToeBase  -17.462835 0.000000 -0.000000
RightUpLeg  15.194950 -14.054524 -1.325686
RightLeg  3.085179 -0.000000 0.000000
RightFoot  4.709004 -3.717065 -13.318073
RightToeBase  -25.752376 0.000000 -0.000000
Spine  13.110906 -1.568892 1.042102
Spine1  1.669091 0.908187 -3.149031
Neck  14.048077 -3.135004 -2.315918
Head  -17.077708 -6.031213 2.721023
LeftShoulder  -9.529935 9.108723 4.820112
LeftArm  23.797653 -19.187744 -71.613227
LeftForeArm  6.911283 -0.000000 0.000000
LeftHand  -6.183284 11.303153 -7.402580
LeftHandThumb  0.000000 -0.000000 0.000000
RightShoulder  -8.772879 -10.868124 -3.980329
RightArm  18.938331 -5.234641 65.074537
RightForeArm  16.155576 -0.000000 0.000000
RightHand  1.564881 7.714486 12.361047
RightHandThumb  0.000000 -0.000000 0.000000
801
root  1.556533 41.319325 101.115752 -19.232016 1.308627 0.057272
LeftUpLeg  13.009768 2.842107 -0.979944
LeftLeg  4.907182 -0.000000 0.000000
LeftFoot  10.340323 11.325463 3.654347
LeftToeBase  -17.411515 0.000000 -0.000000
RightUpLeg  15.345793 -13.978620 -1.303152
RightLeg  2.860814 -0.000000 0.000000
RightFoot  4.708745 -3.806230 -13.077155
RightToeBase  -25.798937 0.000000 -0.000000
Spine  13.095434 -1.582266 1.064716
Spine1  1.632456 0.900753 -3.123706
Neck  13.999540 -3.121044 -2.353699
Head  -16.967514 -6.072894 2.707386
LeftShoulder  -9.459273 8.788540 5.206498
LeftArm  23.613917 -19.692980 -70.763265
LeftForeArm  6.854991 -0.000000 0.000000
LeftHand  -6.268175 11.200535 -7.371346
LeftHandThumb  0.000000 -0.000000 0.000000
RightShoulder  -8.926147 -10.973459 -4.246635
RightArm  18.962803 -4.588447 64.383160
RightForeArm  15.860016 -0.000000 0.000000
RightHand  1.384675 7.578548 12.540485
RightHandThumb  0.000000 -0.000000 0.000000
802
root  1.569903 41.322420 101.167788 -19.159368 1.341056 0.049110
LeftUpLeg  13.119634 2.962067 -0.963819
LeftLeg  4.705331 -0.000000 0.000000
LeftFoot  10.309132 11.197222 3.739427
LeftToeBase  -17.331217 0.000000 -0.000000
RightUpLeg  15.407933 -13.847549 -1.285680
RightLeg  2.755163 -0.000000 0.000000
RightFoot  4.650597 -3.958720 -12.852575
RightToeBase  -25.698186 0.000000 -0.000000
Spine  13.097699 -1.602320 1.075198
Spine1  1.564604 0.882629 -3.122150
Neck  13.913928 -3.121120 -2.354883
Head  -16.804709 -6.076471 2.621396
LeftShoulder  -9.510163 8.541237 5.549641
LeftArm  23.567729 -20.165169 -69.869948
LeftForeArm  6.731239 -0.000000 0.000000
LeftHand  -6.140147 10.876388 -7.299626
LeftHandThumb  0.000000 -0.000000 0.000000
RightShoulder  -9.027257 -11.071914 -4.515619
RightArm  18.964888 -3.970011 63.623646
RightForeArm  15.602462 -0.000000 0.000000
RightHand  1.174704 7.208484 12.813795
RightHandThumb  0.000000 -0.000000 0.000000
803
root  1.584070 41.325260 101.220694 -19.086723 1.373496 0.040988
LeftUpLeg  13.229546 3.081995 -0.947462
LeftLeg  4.503480 -0.000000 0.000000
LeftFoot  10.277760 11.069027 3.824541
LeftToeBase  -17.250920 0.000000 -0.000000
RightUpLeg  15.470078 -13.716497 -1.268071
RightLeg  2.649512 -0.000000 0.000000
RightFoot  4.591840 -4.110980 -12.627797
RightToeBase  -25.597436 0.000000 -0.000000
Spine  13.099960 -1.622374 1.085679
Spine1  1.496751 0.864507 -3.120573
Neck  13.828317 -3.121199 -2.356066
Head  -16.641898 -6.079804 2.535395
LeftShoulder  -9.562517 8.294241 5.892786
LeftArm  23.513539 -20.636622 -68.973483
LeftForeArm  6.607486 -0.000000 0.000000
LeftHand  -6.012670 10.552084 -7.228720
LeftHandThumb  0.000000 -0.000000 0.000000
RightShoulder  -9.127929 -11.170833 -4.784516
RightArm  18.958760 -3.351602 62.864679
RightForeArm  15.344907 -0.000000 0.000000
RightHand  0.963124 6.839419 13.088252
RightHandThumb  0.000000 -0.000000 0.000000
804
root  1.598244 41.328416 101.282294 -19.043235 1.441948 -0.001815
LeftUpLeg  13.414571 3.178419 -0.909632
LeftLeg  4.229868 -0.000000 0.000000
LeftFoot  10.276144 10.945153 4.044810
LeftToeBase  -17.132566 0.000000 -0.000000
RightUpLeg  15.684038 -13.478408 -1.190798
RightLeg  2.299993 -0.000000 0.000000
RightFoot  4.728680 -4.344455 -12.530817
RightToeBase  -25.825698 0.000000 -0.000000
Spine  13.035587 -1.621483 1.111850
Spine1  1.555964 0.876185 -3.073874
Neck  13.776560 -3.093962 -2.394875
Head  -16.552131 -6.131591 2.527548
LeftShoulder  -9.423297 8.039365 6.274688
LeftArm  23.273155 -21.100516 -68.031762
LeftForeArm  6.727313 -0.000000 0.000000
LeftHand  -6.254964 10.729892 -7.302794
LeftHandThumb  0.000000 -0.000000 0.000000
RightShoulder  -9.326420 -11.267667 -5.036694
RightArm  18.962485 -2.577899 62.095790
RightForeArm  15.128686 -0.000000 0.000000
RightHand  0.186652 5.258597 13.932768
RightHandThumb  0.000000 -0.000000 0.000000
805
root  1.613276 41.331388 101.344475 -18.999797 1.510432 -0.044567
LeftUpLeg  13.599677 3.274720 -0.871486
LeftLeg  3.956256 -0.000000 0.000000
LeftFoot  10.274043 10.821285 4.264991
LeftToeBase  -17.014212 0.000000 -0.000000
RightUpLeg  15.898116 -13.240601 -1.112689
RightLeg  1.950473 -0.000000 0.000000
RightFoot  4.865166 -4.578159 -12.434365
RightToeBase  -26.053961 0.000000 -0.000000
Spine  12.971215 -1.620563 1.138020
Spine1  1.615186 0.887815 -3.027162
Neck  13.724786 -3.066761 -2.433707
Head  -16.462349 -6.183366 2.519619
LeftShoulder  -9.285880 7.783577 6.655726
LeftArm  23.023847 -21.560644 -67.084987
LeftForeArm  6.847141 -0.000000 0.000000
LeftHand  -6.497636 10.907391 -7.377678
LeftHandThumb  0.000000 -0.000000 0.000000
RightShoulder  -9.524542 -11.365356 -5.288613
RightArm  18.955821 -1.804217 61.327348
RightForeArm  14.912466 -0.000000 0.000000
RightHand  -0.611411 3.689463 14.796857
RightHandThumb  0.000000 -0.000000 0.000000
806
root  1.630157 41.333704 101.400316 -18.930500 1.570797 -0.050203
LeftUpLeg  13.726652 3.293002 -0.897214
LeftLeg  3.722616 -0.000000 0.000000
LeftFoot  10.274000 10.786520 4.384304
LeftToeBase  -16.906840 0.000000 -0.000000
RightUpLeg  16.011985 -12.956046 -1.051416
RightLeg  1.726430 -0.000000 0.000000
RightFoot  4.948569 -4.890031 -12.349879
RightToeBase  -26.100387 0.000000 -0.000000
Spine  12.932905 -1.629945 1.145083
Spine1  1.606422 0.880462 -3.010107
Neck  13.697964 -3.104660 -2.426883
Head  -16.429461 -6.173091 2.433495
LeftShoulder  -9.278276 7.624296 6.982489
LeftArm  22.931203 -21.955698 -66.085843
LeftForeArm  6.911604 -0.000000 0.000000
LeftHand  -6.625261 10.783818 -7.436808
LeftHandThumb  0.000000 -0.000000 0.000000
RightShoulder  -9.674613 -11.461591 -5.544835
RightArm  18.904797 -1.039982 60.517410
RightForeArm  14.750096 -0.000000 0.000000
RightHand  -0.592179 3.775084 14.780805
RightHandThumb  0.000000 -0.000000 0.000000
807
root  1.647672 41.335848 101.454069 -18.861206 1.631170 -0.055766
LeftUpLeg  13.853622 3.311340 -0.922902
LeftLeg  3.488975 -0.000000 0.000000
LeftFoot  10.273883 10.751756 4.503604
LeftToeBase  -16.799468 0.000000 -0.000000
RightUpLeg  16.126037 -12.671609 -0.989633
RightLeg  1.502388 -0.000000 0.000000
RightFoot  5.031550 -5.202026 -12.265808
RightToeBase  -26.146813 0.000000 -0.000000
Spine  12.894593 -1.639321 1.152152
Spine1  1.597656 0.873110 -2.993051
Neck  13.671137 -3.142556 -2.420041
Head  -16.396589 -6.162766 2.347378
LeftShoulder  -9.271590 7.464974 7.309110
LeftArm  22.830865 -22.349189 -65.083207
LeftForeArm  6.976068 -0.000000 0.000000
LeftHand  -6.752705 10.660117 -7.495634
LeftHandThumb  0.000000 -0.000000 0.000000
RightShoulder  -9.824294 -11.558483 -5.800886
RightArm  18.842984 -0.276545 59.706915
RightForeArm  14.587726 -0.000000 0.000000
RightHand  -0.572969 3.860709 14.764780
RightHandThumb  0.000000 -0.000000 0.000000
